<?xml version="1.0" encoding="UTF-8"?>
<svg version="1.1" viewBox="0 0 1600 1600" width="1280" height="1280" xmlns="http://www.w3.org/2000/svg">
<path transform="translate(429 379)" d="m0 0c2.61-0.00115 5.21-0.00274 7.82-0.00473 5.62-0.00358 11.2-0.00352 16.9-9.53e-4 8.36 0.00381 16.7 0.00183 25.1-0.00121 14.9-0.00524 29.9-0.00482 44.8-0.00192 13.1 0.00252 26.2 0.00317 39.2 0.00198 0.87-7.64e-5 1.74-1.53e-4 2.64-2.31e-4 3.53-3.11e-4 7.06-6.3e-4 10.6-9.6e-4 33.1-0.00305 66.2-2.93e-4 99.2 0.0051 29.3 0.00475 58.7 0.00432 88-4.61e-4 33-0.00536 66.1-0.00747 99.1-0.00439 3.52 3.21e-4 7.05 6.34e-4 10.6 9.43e-4 0.868 7.91e-5 1.74 1.58e-4 2.63 2.4e-4 13.1 0.00113 26.1-1.87e-4 39.2-0.00272 14.9-0.00287 29.7-0.00213 44.6 0.00328 8.3 0.00292 16.6 0.00315 24.9-6.46e-4 6.22-0.00253 12.4 2.42e-4 18.7 0.00497 2.5 0.00111 5 5.69e-4 7.5-0.00188 41.3-0.0372 79.3 0.951 112 29.1 1.04 0.889 1.04 0.889 2.11 1.8 5.64 5.21 9.73 11.8 13.9 18.2 0.645 0.972 1.29 1.94 1.95 2.95 11.5 18.3 12.4 39 13 60.1 3.29-1.22 5.98-2.56 8.81-4.62 8.51-5.77 18-9.9 27.3-14.3 14.6-6.89 14.6-6.89 28.4-15 8.15-4.91 16.9-8.88 25.4-13.1 8.31-4.07 16.5-8.22 24.6-12.8 0.651-0.365 1.3-0.73 1.97-1.11 2.83-1.6 5.53-3.24 8.21-5.09 4.37-2.81 8.99-4.92 13.7-7.11 2.06-0.975 4.12-1.95 6.18-2.93 1.05-0.497 2.1-0.995 3.17-1.51 12.1-5.75 24-11.5 35.2-18.7 12.6-7.79 12.6-7.79 17.9-7.79 0.07 21.5 0.123 42.9 0.155 64.4 0.0155 9.96 0.0366 19.9 0.0709 29.9 0.0299 8.68 0.0492 17.4 0.0559 26 0.00392 4.6 0.0132 9.2 0.0349 13.8 0.0203 4.33 0.0267 8.65 0.0221 13 8.27e-4 1.59 0.00682 3.18 0.0183 4.77 0.0149 2.17 0.0114 4.33 0.00315 6.5 0.00277 1.21 0.00553 2.43 0.00838 3.68-0.369 2.95-0.369 2.95-1.74 4.77-2.25 1.62-4.59 2.81-7.09 4.03-1.63 0.804-1.63 0.804-3.29 1.62-1.16 0.564-2.31 1.13-3.5 1.71-2.38 1.17-4.76 2.35-7.13 3.53-1.72 0.851-1.72 0.851-3.47 1.72-8.15 4.06-16.1 8.42-24.1 12.9-9.32 5.3-18.8 10.1-28.5 14.8-8.59 4.2-17.1 8.41-25.2 13.4-9.89 6.04-20.3 11-30.7 16.1-8.48 4.17-16.8 8.57-25 13.2-4.91 2.79-9.9 5.42-14.9 8.02-0.967 0.504-1.93 1.01-2.93 1.53-4.72 2.45-9.44 4.86-14.2 7.21-1.29 0.638-1.29 0.638-2.61 1.29-1.58 0.774-3.15 1.54-4.74 2.3-4.19 2.05-8.21 4.29-12.2 6.74-10.1 6.24-20.7 11.5-31.4 16.7-14.4 6.97-14.4 6.97-28.4 14.9-5 3.02-10.2 5.61-15.4 8.28-1.2 0.622-2.41 1.25-3.61 1.87-5.6 2.89-11.2 5.76-16.9 8.52-5.48 2.7-10.7 5.5-15.9 8.74-10.2 6.25-21 11.4-31.8 16.6-15.8 7.58-15.8 7.58-30.7 16.5-8.82 5.39-18.4 9.6-27.7 14.1-10 4.92-19.9 9.86-29.5 15.7-4.6 2.84-9.26 5.3-14.2 7.53-0.726 0.341-1.45 0.682-2.2 1.03-5.2 2.4-5.2 2.4-7.49 2.4 2.37 2.65 4.81 4.1 7.97 5.71 0.983 0.505 1.97 1.01 2.98 1.53l3.11 1.58c11.4 5.78 11.4 5.78 16.6 9.01 7.49 4.57 15.4 8.3 23.3 12.2 12 5.91 23.8 11.9 35.3 18.7 7.06 4.11 14.4 7.55 21.8 11 12.6 5.97 25 12.4 37.1 19.4 6.01 3.49 12.2 6.45 18.5 9.38 11.8 5.52 23.3 11.7 34.6 18.1 6.96 3.95 14 7.57 21.2 11.1 5.04 2.48 10.1 4.97 15.1 7.47 1.82 0.905 3.65 1.81 5.47 2.71 6.1 3.03 12 6.2 17.8 9.76 3.2 1.92 6.49 3.58 9.85 5.21 0.68 0.336 1.36 0.672 2.06 1.02 2.76 1.36 5.52 2.72 8.28 4.07 8.06 3.95 16 8.07 23.9 12.4 12.1 6.71 24.3 13.2 36.7 19.4 0.661 0.329 1.32 0.658 2 0.997 3.3 1.64 6.6 3.27 9.9 4.9 6.26 3.09 12.4 6.31 18.3 9.98 3.61 2.19 7.33 4.17 11.1 6.13 1.21 0.636 1.21 0.636 2.44 1.29 6.03 3.14 12.1 6.08 18.3 8.96 7.23 3.39 14.2 7.01 21.2 11 8.2 4.64 16.6 8.92 25 13.2 1.1 0.568 2.21 1.14 3.34 1.72 0.98 0.502 1.96 1 2.97 1.52 3.37 1.78 6.68 3.69 9.99 5.58v169c-4.01-1.34-7.19-2.48-10.8-4.39-1.32-0.694-1.32-0.694-2.68-1.4-1.36-0.721-1.36-0.721-2.75-1.46-0.891-0.465-1.78-0.931-2.7-1.41-4.33-2.28-8.59-4.64-12.8-7.2-6.7-4.07-13.7-7.57-20.7-11.1-1.35-0.692-2.69-1.39-4.04-2.08-5.98-3.07-12-6.11-18-9.05-3.52-1.75-6.77-3.59-10-5.83-5.65-3.91-11.8-6.79-18-9.8-2.5-1.23-5-2.47-7.5-3.71-0.614-0.304-1.23-0.608-1.86-0.921-10.5-5.2-21-10.5-30.9-16.7-5.38-3.39-10.9-6.09-16.7-8.73-12.7-5.86-25-12.6-37.1-19.6-1.51-0.871-3.03-1.72-4.59-2.5-0.0146 0.668-0.0292 1.34-0.0442 2.03-0.61 25.1-2.62 46.2-18 67-0.554 0.777-1.11 1.55-1.68 2.36-18.1 24.5-43.2 35.4-72.6 40.2-8.44 1.25-16.8 1.55-25.4 1.54-1.69 0.00308-1.69 0.00308-3.41 0.00622-3.76 0.00564-7.52 0.00422-11.3 0.00279-2.73 0.00204-5.45 0.00556-8.18 9e-3 -6.7 0.00755-13.4 0.00977-20.1 0.0103-8.03 9.16e-4 -16.1 0.00759-24.1 0.0143-19.4 0.016-38.8 0.022-58.2 0.0267-9.18 0.00234-18.4 0.00594-27.5 0.0097-31.5 0.0128-62.9 0.0236-94.4 0.027-1.97 2.22e-4 -3.95 4.43e-4 -5.92 6.65e-4 -1.98 2.21e-4 -3.96 4.41e-4 -5.93 6.61e-4 -3.97 4.43e-4 -7.94 8.9e-4 -11.9 0.00134-0.984 1.09e-4 -1.97 2.19e-4 -2.98 3.31e-4 -31.9 0.00363-63.8 0.0195-95.7 0.0429-33.7 0.0246-67.5 0.0383-101 0.0395-3.71 1.71e-4 -7.41 3.87e-4 -11.1 6.34e-4 -0.913 5.58e-5 -1.83 1.12e-4 -2.77 1.69e-4 -14.7 0.00115-29.3 0.0122-44 0.0267-14.7 0.0144-29.5 0.0176-44.2 0.00956-8.75-0.00444-17.5-6.55e-4 -26.2 0.0152-5.86 0.0098-11.7 0.00852-17.6-0.00144-3.33-0.00535-6.66-0.00453-9.99 0.00651-20.1 0.0623-39.6-0.875-58.7-7.38-0.653-0.215-1.31-0.431-1.98-0.652-12.7-4.21-21.8-10-31.6-19.2-2.13-1.96-4.33-3.79-6.57-5.62-12.9-11.4-18.9-29.3-22.8-45.6-0.263-1.08-0.263-1.08-0.531-2.19-1.9-8.95-1.74-17.9-1.7-27 5.65e-4 -1.81 2.46e-4 -3.63-8.85e-4 -5.44-5.71e-4 -4.9 0.0111-9.79 0.0251-14.7 0.0126-5.13 0.0137-10.3 0.0161-15.4 0.0062-9.7 0.0226-19.4 0.0427-29.1 0.0224-11 0.0334-22.1 0.0434-33.1 0.0209-22.7 0.056-45.4 0.101-68.1 0.621-0.338 1.24-0.675 1.88-1.02 2.86-1.56 5.72-3.11 8.57-4.67 0.976-0.531 1.95-1.06 2.96-1.61 5.16-2.81 10.3-5.64 15.4-8.54 13.2-7.48 26.9-14.1 40.5-20.8 1.06-0.525 2.12-1.05 3.21-1.59 0.947-0.469 1.89-0.937 2.87-1.42 2.47-1.28 4.83-2.65 7.19-4.11 11.6-7.1 23.9-13 36.2-18.8 7.25-3.41 14.2-7.02 21-11.2 8.73-5.4 18-9.68 27.3-14 1.08-0.509 2.15-1.02 3.26-1.54 2.1-0.992 4.2-1.98 6.3-2.95 5.58-2.64 10.9-5.52 16.1-8.77 10.5-6.45 21.6-11.7 32.6-17.1 4.26-2.09 8.52-4.19 12.8-6.29 0.956-0.466 1.91-0.932 2.9-1.41 5.25-2.6 10.1-5.41 15-8.77 3.27-2.18 6.77-3.84 10.3-5.52 1.37-0.656 2.74-1.32 4.11-1.98 0.592-0.281 1.18-0.563 1.79-0.852 2.08-1.15 3.91-2.52 5.78-3.98-0.943-0.437-0.943-0.437-1.91-0.883-20.7-9.62-20.7-9.62-27.7-14.2-6.14-3.97-12.6-6.99-19.2-10.1-8.52-3.98-16.8-8.34-25.1-12.8-2.06-1.08-4.13-2.12-6.22-3.15-3.53-1.75-6.91-3.69-10.3-5.7-5.13-2.99-10.4-5.64-15.8-8.12-12.8-5.89-25.1-12.7-37.5-19.4-1.09-0.585-2.17-1.17-3.29-1.77-0.636-0.344-1.27-0.688-1.93-1.04-7.73-4.17-15.5-8.21-23.4-11.9-11.9-5.5-23.5-11.6-34.8-18.2-9.04-5.22-18.4-9.82-27.8-14.2-12-5.61-23.6-11.7-35-18.7-0.641-0.208-1.28-0.416-1.94-0.63-2.71-1.13-4.16-2.1-6.06-4.37-1.26-5.68-1.05-11.3-0.972-17.1-0.00429-1.78-0.0121-3.56-0.023-5.34-0.0194-4.84 0.0113-9.68 0.0518-14.5 0.0352-5.08 0.0281-10.2 0.0266-15.2 0.00375-8.55 0.0385-17.1 0.0931-25.6 0.0626-9.84 0.084-19.7 0.0811-29.5-0.00272-10.5 0.0252-21 0.0618-31.5 0.00846-3.01 0.0114-6.01 0.013-9.02 0.00407-4.76 0.0289-9.53 0.0687-14.3 0.0115-1.73 0.0166-3.46 0.0143-5.19-0.0213-25.3 5.8-53 23.9-71.9 8.47-8.14 17.1-16.4 27.7-21.6 0.985-0.498 1.97-0.995 2.98-1.51 15.8-7.37 33.1-10.3 50.4-11 1-0.0421 2-0.0843 3.03-0.128 12.1-0.466 24.1-0.457 36.2-0.445zm-47.6 156c3.66 3.66 6.7 5.55 11.2 7.69 5.56 2.69 11 5.52 16.3 8.62 6.25 3.6 12.7 6.75 19.2 9.81 9.02 4.23 17.9 8.77 26.6 13.5 0.601 0.324 1.2 0.648 1.82 0.982 3.94 2.13 7.87 4.26 11.8 6.39 9.02 4.89 18.1 9.54 27.4 13.9 7.86 3.67 15.3 7.74 22.8 12.2 8.69 5.13 17.7 9.6 26.8 13.8 9.01 4.15 17.7 8.65 26.4 13.4 13.9 7.64 27.9 14.9 42.1 21.9 4.25 2.11 8.34 4.4 12.4 6.8 6.43 3.74 13 6.89 19.8 10 10.2 4.72 20.2 9.91 30.2 15.1 0.76 0.396 1.52 0.791 2.3 1.2 3.91 2.06 7.73 4.21 11.5 6.52 5.75 3.48 11.7 6.61 17.6 9.65 1.25 0.637 2.49 1.28 3.73 1.93 1.82 0.959 3.65 1.89 5.48 2.82 1.07 0.554 2.15 1.11 3.25 1.68 4.88 1.64 8.44 0.81 13.1-1.14 1.41-0.752 1.41-0.752 2.85-1.52 1.06-0.556 2.11-1.11 3.2-1.69 1.63-0.877 1.63-0.877 3.29-1.77 1.07-0.565 2.14-1.13 3.24-1.71 3.18-1.69 6.35-3.39 9.51-5.1 1.01-0.544 2.02-1.09 3.06-1.65 4.5-2.44 8.95-4.92 13.3-7.6 8.07-4.75 16.6-8.56 25.1-12.5 8.62-4.07 17.1-8.21 25.2-13.3 9.83-6.01 20.2-10.9 30.5-16 16-7.84 16-7.84 31.4-16.9 8.11-4.98 16.9-8.9 25.4-13.1 16.8-8.22 16.8-8.22 33.1-17.3 3.34-1.92 6.73-3.63 10.2-5.34 0.716-0.354 1.43-0.709 2.17-1.07 0.616-0.303 1.23-0.606 1.87-0.918 14.6-7.26 29.1-14.9 43.4-22.8 6.91-3.82 13.9-7.34 21-10.6 8.16-3.77 16-8.18 23.8-12.6 3.44-1.93 6.9-3.84 10.3-5.76 3.4-1.89 6.8-3.78 10.2-5.67v-2h-684zm336 349c-0.905 0.506-1.81 1.01-2.74 1.53-0.952 0.545-1.9 1.09-2.89 1.65-1.98 1.11-3.97 2.22-5.95 3.32-0.962 0.538-1.92 1.08-2.92 1.63-3.44 1.89-6.92 3.64-10.4 5.36-3.73 1.83-7.3 3.72-10.8 5.94-4.94 3.05-10.1 5.48-15.4 7.94-15 7.05-29.5 14.9-44.1 22.9-5.96 3.26-12 6.38-18.1 9.38-5.29 2.61-10.5 5.32-15.7 8.07-1.13 0.594-1.13 0.594-2.28 1.2-4.11 2.17-8.2 4.38-12.3 6.61-5.57 3.05-11.2 6-16.8 8.94-1.51 0.79-1.51 0.79-3.06 1.6-5.45 2.84-10.9 5.63-16.4 8.34-7.54 3.71-14.9 7.7-22.3 11.7-7.99 4.3-16 8.57-24.1 12.6-13.5 6.65-26.7 13.7-39.9 21-8.5 4.7-17.2 8.94-25.9 13.1-6.36 3-12.4 6.23-18.5 9.82-5.29 3.1-10.8 5.85-16.3 8.64-1.16 0.6-1.16 0.6-2.35 1.21-0.691 0.352-1.38 0.705-2.09 1.07-1.94 1.18-3.29 2.51-4.86 4.13 6.91 0.902 13.7 1.14 20.6 1.13 1.15 0.00145 2.29 0.00291 3.48 0.0044 3.18 0.00301 6.35 0.00157 9.53-0.00178 3.46-0.00254 6.92 7.25e-4 10.4 0.00324 6.06 0.00361 12.1 0.0035 18.2 9.53e-4 9.01-0.00378 18-0.00185 27 0.00121 16.1 0.00527 32.2 0.00481 48.3 0.00192 14.1-0.00251 28.2-0.00317 42.2-0.00198 0.933 7.64e-5 1.87 1.53e-4 2.83 2.31e-4 3.79 3.11e-4 7.58 6.3e-4 11.4 9.6e-4 35.5 0.00306 71.1 2.85e-4 107-0.0051 31.6-0.00475 63.2-0.00432 94.8 4.61e-4 35.5 0.00535 71 0.00748 106 0.00439 3.78-3.21e-4 7.56-6.34e-4 11.3-9.43e-4 0.931-7.91e-5 1.86-1.58e-4 2.82-2.4e-4 14.1-0.00114 28.1 1.95e-4 42.2 0.00272 16 0.00285 32 0.00216 48-0.00328 8.96-0.00294 17.9-0.00312 26.9 6.46e-4 5.97 0.00223 11.9 8.64e-4 17.9-0.0035 3.41-0.00239 6.82-0.00317 10.2 4.06e-4 3.66 0.00301 7.33-4.46e-5 11-0.00472 1.07 0.00234 2.14 0.00468 3.25 0.00709 0.971-0.0025 1.94-0.00501 2.94-0.00759 0.839-6.78e-5 1.68-1.36e-4 2.54-2.05e-4 2.33-0.0427 2.33-0.0427 5.14-1.13v-2c-0.613-0.316-1.23-0.633-1.86-0.959-20.4-10.6-20.4-10.6-28.6-15.3-8.64-4.99-17.6-9.32-26.6-13.7-8.81-4.37-17.5-8.83-26.1-13.7-5.27-2.99-10.6-5.73-16.1-8.41-7.82-3.86-15.5-7.96-23.1-12.2-7.65-4.21-15.4-8.21-23.2-12.2-3.87-1.98-7.75-3.97-11.6-5.96-1.15-0.589-1.15-0.589-2.32-1.19-6.62-3.4-13.2-6.82-19.8-10.3-0.902-0.469-1.8-0.937-2.73-1.42-4.05-2.11-8.04-4.29-12-6.57-4.92-2.75-9.95-5.29-15-7.88-1.21-0.63-2.43-1.26-3.64-1.89-6.47-3.35-13-6.64-19.5-9.86-4.92-2.42-9.61-5.06-14.3-7.95-5.37-3.13-11-5.79-16.6-8.53-14.7-7.24-29.5-14.5-43.6-22.8-6.88-3.97-13.9-7.59-21-11.2-1.72-0.883-1.72-0.883-3.47-1.78-1.09-0.546-2.17-1.09-3.29-1.65-0.974-0.494-1.95-0.987-2.95-1.5-4.99-1.95-7.97-1.28-12.5 1.31z" fill="#000100"/>
</svg>
