<?xml version="1.0" encoding="UTF-8"?>
<svg version="1.1" viewBox="0 0 1600 1392" width="1280" height="1280" xmlns="http://www.w3.org/2000/svg">
<path transform="translate(0)" d="m0 0h1600v1392h-1600v-1392z" fill="#000100"/>
<path transform="translate(181,149)" d="m0 0c38.6-0.0229 77.2-0.0405 116-0.0511 4.56-0.00125 9.13-0.00254 13.7-0.00387 0.908-2.62e-4 1.82-5.25e-4 2.75-7.95e-4 14.7-0.00435 29.4-0.0122 44.1-0.0214 15.1-0.00937 30.2-0.0149 45.3-0.0169 9.3-0.00137 18.6-0.00569 27.9-0.0138 6.39-0.0053 12.8-0.00688 19.2-0.00558 3.68 6.38e-4 7.36-3.11e-4 11-0.0057 4-0.00582 8-0.00377 12-0.00105 1.72-0.00437 1.72-0.00437 3.47-0.00883 5.8 0.0106 11.6 0.15 17.4 0.445 1.13 0.0561 2.27 0.112 3.43 0.17 4.09 0.704 6.01 2.35 8.57 5.5 0.467 0.664 0.934 1.33 1.42 2.01 0.475 0.625 0.949 1.25 1.44 1.89 1.45 1.96 2.82 3.96 4.19 5.98 4.09 5.93 8.29 11.7 12.7 17.4 4.84 6.28 9.63 12.6 14.4 18.9 4.2 5.61 8.4 11.2 12.7 16.8 4.6 5.96 9.12 12 13.6 18 0.683 0.908 1.37 1.82 2.07 2.75 4.68 6.22 9.31 12.5 13.9 18.8 4.56 6.19 9.13 12.4 13.8 18.5 1.64 2.17 3.27 4.35 4.9 6.53 5.09 6.81 10.2 13.6 15.4 20.4 5.62 7.35 11.2 14.7 16.5 22.3 2.72 3.85 5.55 7.6 8.44 11.3 3.33 4.28 6.56 8.63 9.69 13.1 5.94 8.4 12.1 16.6 18.3 24.8 3.23 4.28 6.44 8.57 9.66 12.9 1.25 1.67 2.5 3.33 3.75 5 18.7 24.9 18.7 24.9 20.2 26.9 1.03 1.37 2.05 2.73 3.08 4.1 2.16 2.88 4.32 5.76 6.47 8.64 5.6 7.49 11.3 14.9 16.9 22.3 4.3 5.64 8.58 11.3 12.8 17 2.22 2.95 4.48 5.87 6.74 8.79 8.67 11.2 17 22.7 25.3 34.2 3.01 4.14 6.02 8.27 9.06 12.4 1.97 2.67 3.92 5.33 5.8 8.06 0.5 0.718 1 1.44 1.52 2.18 0.4 0.596 0.799 1.19 1.21 1.8 2.09 1.96 3.57 2.26 6.41 2.32 2.34-1.57 2.34-1.57 4.38-3.94 0.784-0.838 1.57-1.68 2.38-2.54 0.742-0.833 1.48-1.67 2.25-2.52 0.578-0.647 1.16-1.29 1.75-1.96 1.11-1.26 2.21-2.53 3.3-3.81 2.43-2.79 4.94-5.51 7.45-8.23 3.13-3.4 6.23-6.81 9.25-10.3 2.7-3.12 5.56-6.02 8.5-8.91 1.83-1.87 3.54-3.8 5.25-5.78 2.78-3.23 5.71-6.23 8.75-9.22 1.83-1.87 3.54-3.8 5.25-5.78 2.25-2.61 4.55-5.09 7-7.5 2.29-2.26 4.46-4.56 6.56-7 4.13-4.8 8.48-9.39 12.8-14 3-3.2 5.96-6.41 8.81-9.75 3.23-3.76 6.75-7.21 10.3-10.7 2.61-2.58 5.1-5.21 7.48-8 3.5-4.11 7.32-7.85 11.2-11.6 3.4-3.37 6.6-6.85 9.7-10.5 2.7-3.04 5.62-5.85 8.51-8.7 2.64-2.67 5.07-5.48 7.52-8.33 1.66-1.88 3.39-3.64 5.18-5.4 2.29-2.26 4.46-4.56 6.56-7 3.5-4.06 7.15-7.97 10.8-11.9 3.89-4.15 7.77-8.31 11.6-12.6 5.76-6.45 11.7-12.7 17.6-19 2.96-3.15 5.91-6.32 8.86-9.48 6.99-7.49 14-15 21-22.4 4.01-4.25 8.01-8.51 12-12.8 3.44-3.66 6.89-7.31 10.3-11 0.711-0.753 1.42-1.51 2.15-2.28 1.35-1.42 2.69-2.85 4.04-4.27 3.13-3.31 6.19-6.66 9.17-10.1 2.5-2.88 5.08-5.63 7.82-8.29 3.45-3.4 6.67-6.92 9.82-10.6 2.2-2.49 4.57-4.8 6.94-7.12 1.79-1.82 3.46-3.71 5.12-5.65 3.23-3.75 6.67-7.21 10.2-10.7 2.63-2.7 5.09-5.52 7.56-8.37 2.93-3.34 5.98-6.56 9.03-9.79 4.63-4.92 9.24-9.84 13.8-14.8 4.62-5.02 9.27-10 13.9-15 0.627-0.671 1.25-1.34 1.9-2.03 1.71-1.83 3.44-3.65 5.16-5.47 0.888-0.938 1.78-1.88 2.69-2.84 4.6-4.29 8.48-4.45 14.6-4.42 0.835-0.0035 1.67-0.00701 2.53-0.0106 2.76-0.0088 5.51-0.00298 8.27 0.00378 1.92-0.00135 3.83-0.00329 5.75-0.0058 4.01-0.00295 8.02 0.00134 12 0.0107 5.15 0.0114 10.3 0.00483 15.4-0.00714 3.95-0.00722 7.91-0.00493 11.9 2.56e-4 1.9 0.00134 3.8-3.08e-4 5.69-0.00496 2.65-0.00507 5.3 0.00265 7.95 0.0138 0.787-0.00405 1.57-0.0081 2.39-0.0123 3.8 0.0297 5.55 0.111 8.79 2.27-5.84 6.46-11.7 12.8-17.9 18.9-2.59 2.63-4.98 5.39-7.38 8.19-1.66 1.88-3.39 3.64-5.18 5.4-2.35 2.31-4.55 4.68-6.69 7.19-3.59 4.18-7.48 8.01-11.4 11.9-3.45 3.42-6.69 6.94-9.84 10.6-2.16 2.46-4.5 4.73-6.84 7.03-1.75 1.78-3.37 3.62-4.98 5.52-2.93 3.41-6.05 6.59-9.25 9.75-5.2 5.14-10.1 10.4-14.6 16.2-2.6 3.21-5.55 6.02-8.5 8.9-2.99 2.95-5.88 5.94-8.62 9.13-4.33 4.98-8.87 9.76-13.4 14.5-2.68 2.84-5.27 5.64-7.67 8.72-0.55 0.664-1.1 1.33-1.67 2.01h-2c-0.377 0.853-0.377 0.853-0.762 1.72-1.41 2.59-3.07 4.53-5.05 6.71-0.666 0.741-1.33 1.48-2.02 2.25-2.79 2.98-5.68 5.84-8.58 8.71-5.42 5.35-10.8 10.7-15.7 16.5-2.53 2.82-5.21 5.46-7.91 8.12-3.89 3.85-7.63 7.74-11.2 11.9-7.15 8.28-14.8 16.2-22.3 24.2-4.68 4.98-9.31 10-13.9 15-1.87 2.04-3.74 4.08-5.62 6.12-0.495 0.537-0.989 1.07-1.5 1.63-1.37 1.48-2.74 2.97-4.11 4.45-2.24 2.5-4.33 5.07-6.41 7.69-2.18 2.23-4.4 4.41-6.63 6.59-3.72 3.67-7.21 7.48-10.6 11.4-1.69 1.9-3.44 3.69-5.25 5.47-2.35 2.31-4.55 4.68-6.69 7.19-3.59 4.18-7.48 8.01-11.4 11.9-3.45 3.42-6.69 6.94-9.84 10.6-2.16 2.46-4.49 4.72-6.82 7.01-1.83 1.87-3.54 3.8-5.25 5.78-2.78 3.23-5.71 6.23-8.75 9.22-1.83 1.87-3.54 3.8-5.25 5.78-2.25 2.61-4.55 5.09-7 7.5-3.04 2.99-5.85 6.13-8.64 9.36-5.88 6.79-12 13.4-18.1 20-0.59 0.634-1.18 1.27-1.79 1.92-3.26 3.49-6.59 6.89-9.96 10.3-1.39 1.51-2.76 3.03-4.12 4.56-5.24 5.86-10.5 11.7-15.9 17.4-0.823 0.893-0.823 0.893-1.66 1.8-1.8 1.94-3.6 3.88-5.4 5.82-0.924 0.993-0.924 0.993-1.87 2.01-3.59 3.82-7.25 7.55-11 11.2-0.823 0.807-1.65 1.61-2.49 2.44-1.61 1.57-3.23 3.13-4.85 4.68-1.1 1.07-1.1 1.07-2.22 2.16-0.653 0.626-1.31 1.25-1.98 1.9-1.84 2.37-2.32 3.99-2.53 6.97 1.4 2.28 2.73 4.11 4.44 6.12 0.939 1.16 1.88 2.32 2.81 3.48 0.469 0.574 0.938 1.15 1.42 1.74 1.85 2.3 3.56 4.69 5.27 7.09 2.96 4.11 6.04 8.1 9.19 12.1 6.23 7.86 12.1 15.9 18.1 24 2.97 4.06 5.95 8.11 8.93 12.2 0.871 1.18 0.871 1.18 1.76 2.39 5.17 7.01 10.4 14 15.6 21 3.07 4.08 6.13 8.17 9.2 12.3 2.18 2.91 4.36 5.81 6.55 8.72 5.17 6.87 10.3 13.8 15.4 20.7 4.24 5.76 8.52 11.5 12.8 17.2 3.93 5.22 7.8 10.5 11.7 15.8 3.97 5.4 7.96 10.8 12.1 16.1 4.02 5.18 7.91 10.4 11.8 15.7 3.52 4.82 7.08 9.6 10.7 14.4 1.71 2.28 3.43 4.56 5.13 6.84 5.22 6.99 10.5 13.9 15.8 20.9 4.52 5.9 8.97 11.8 13.3 17.8 4.8 6.57 9.68 13.1 14.6 19.6 2.51 3.34 5.01 6.68 7.52 10 1 1.33 2 2.67 3 4 2 2.67 4 5.33 6 8 0.495 0.66 0.99 1.32 1.5 2 0.999 1.33 2 2.66 3 4 2.51 3.35 5.02 6.69 7.54 10 4.9 6.52 9.78 13.1 14.6 19.7 4.24 5.81 8.59 11.5 13 17.2 4.91 6.36 9.74 12.8 14.4 19.3 5.72 7.99 11.5 15.8 17.7 23.4 3.88 4.8 7.38 9.79 10.8 14.9 2.74 3.98 5.69 7.79 8.64 11.6 4.59 5.94 9.06 12 13.4 18.1 3.75 5.24 7.54 10.4 11.5 15.5 3.9 5.01 7.61 10.1 11.3 15.3 2.21 3.12 4.47 6.19 6.84 9.19 3.46 4.37 6.69 8.9 9.94 13.4 4.37 6.09 8.84 12.1 13.5 17.9 5.77 7.27 11.2 14.8 16.7 22.3 2.02 2.75 4.07 5.47 6.13 8.19 3.74 4.97 7.37 10 11 15.1 4.03 5.61 8.12 11.1 12.5 16.5 5.91 7.28 11.6 14.8 17 22.4l2.22 3.12c1.67 2.79 2.18 4.72 2.71 7.88-40.6-0.0589-81.1-0.133-122-0.229-4.79-0.0113-9.57-0.0224-14.4-0.0335-0.953-0.0022-1.91-0.00441-2.89-0.00668-15.4-0.0354-30.9-0.0602-46.3-0.0812-15.8-0.0217-31.7-0.0548-47.5-0.0984-9.77-0.0265-19.5-0.0442-29.3-0.0506-6.7-0.00525-13.4-0.0214-20.1-0.0463-3.87-0.014-7.73-0.0232-11.6-0.0193-4.19 0.00403-8.38-0.015-12.6-0.0363-1.23 0.00485-2.45 0.0097-3.72 0.0147-1.68-0.0142-1.68-0.0142-3.4-0.0287-1.45-0.00285-1.45-0.00285-2.93-0.00575-4.52-0.642-7.05-2.67-9.99-6.06-1.17-1.58-1.17-1.58-2.36-3.2-0.881-1.18-1.76-2.36-2.64-3.54-0.444-0.6-0.888-1.2-1.35-1.82-2.03-2.72-4.12-5.4-6.2-8.09-8.8-11.4-17.4-23-25.9-34.6-5.69-7.73-11.4-15.4-17.2-23.1-11.6-15.4-11.6-15.4-15.8-21.2-4.34-6.01-8.81-11.9-13.3-17.8-4.45-5.92-8.85-11.9-13.2-17.8-3.84-5.23-7.71-10.4-11.7-15.6-7.54-9.73-14.8-19.7-22-29.6-0.93-1.27-1.86-2.54-2.79-3.81-0.449-0.613-0.897-1.23-1.36-1.86-2.71-3.69-5.44-7.36-8.2-11-3.76-4.99-7.42-10-11.1-15.1-4.65-6.47-9.41-12.8-14.3-19.1-2.84-3.69-5.56-7.45-8.29-11.2-3.6-4.95-7.3-9.83-11-14.7-6.02-8-12-16-17.9-24.1-3.12-4.27-6.3-8.49-9.48-12.7-3.39-4.51-6.74-9.06-10.1-13.6-5.06-6.93-10.3-13.8-15.5-20.6-3.34-4.35-6.63-8.74-9.91-13.1-2.26-3-4.55-5.96-6.84-8.93-4.84-6.25-9.52-12.6-14.2-19-3.26-4.44-6.54-8.87-9.86-13.3-3.23-4.28-6.34-8.62-9.44-13-3.38-4.78-6.88-9.34-10.8-13.7-2.39 0.576-4.67 1.22-7 2-0.33 0.99-0.66 1.98-1 3-1.62 1.71-3.29 3.37-5 5-0.958 0.942-1.91 1.89-2.87 2.83-0.489 0.484-0.978 0.968-1.48 1.47-5.71 5.66-5.71 5.66-11.1 11.6-3.69 4.34-7.75 8.28-11.8 12.3-3.49 3.47-6.79 7.02-9.97 10.8-2.28 2.56-4.72 4.93-7.17 7.32-4.49 4.4-8.46 9.08-12.4 14-3.02 3.61-6.31 6.86-9.7 10.1-2.7 2.73-5.2 5.59-7.72 8.49-2.93 3.34-5.97 6.55-9.02 9.78-4.72 5.01-9.41 10-14.1 15.1-3.76 4.1-7.6 8.09-11.6 12-3.68 3.64-7.15 7.36-10.5 11.3-1.82 2.05-3.72 3.97-5.68 5.89-4.66 4.6-8.89 9.53-13.1 14.5-0.715 0.824-1.43 1.65-2.17 2.5l-1.99 2.31c-1.7 1.69-1.7 1.69-3.7 1.69-0.223 0.552-0.446 1.1-0.676 1.67-1.74 3.06-3.98 5.14-6.51 7.58-3.86 3.74-7.45 7.58-11 11.6-3.84 4.37-7.89 8.54-11.9 12.8-7.67 7.95-7.67 7.95-14.5 16.6-0.471 0.583-0.941 1.17-1.43 1.77h-2c-0.254 0.583-0.508 1.17-0.77 1.77-1.36 2.48-2.87 4.04-4.92 5.98-2.65 2.58-5.17 5.18-7.56 8-3.57 4.16-7.44 7.97-11.3 11.8-3.42 3.4-6.64 6.9-9.77 10.6-2.43 2.76-5.07 5.29-7.68 7.87-1.84 1.87-3.56 3.8-5.27 5.8-2.91 3.39-6.01 6.55-9.19 9.69-3.69 3.64-7.21 7.36-10.6 11.3-7.84 9.01-16.2 17.6-24.3 26.4-2.44 2.61-4.88 5.23-7.31 7.85-5.43 5.84-10.9 11.6-16.6 17.2-3.69 3.75-7.08 7.76-10.4 11.8-0.532 0.641-1.06 1.28-1.61 1.94-0.471 0.577-0.941 1.16-1.43 1.75-1.26 1.25-1.26 1.25-3.26 1.25-0.387 0.88-0.387 0.88-0.781 1.78-1.31 2.4-2.74 3.91-4.72 5.79-2.22 2.11-3.78 3.85-5.5 6.44h-2c-0.233 0.562-0.467 1.12-0.707 1.7-1.61 2.86-3.61 4.77-5.98 7.05-3.64 3.56-7.08 7.18-10.4 11-2.49 2.86-5.05 5.66-7.61 8.46-0.464 0.508-0.928 1.02-1.41 1.54-7.21 7.85-10.3 9.63-20.9 10.2-6.12 0.166-12.2 0.117-18.4 0.0977-1.76-0.00187-3.51-0.00329-5.27-0.00429-4.58-0.00379-9.17-0.0136-13.8-0.0247-4.69-0.0103-9.39-0.0148-14.1-0.0198-9.18-0.0107-18.4-0.0277-27.5-0.0488-0.33-0.66-0.66-1.32-1-2 4.65-6.62 10.1-12 16.1-17.4 5.82-5.23 11.1-10.8 16.2-16.7 1.67-1.89 3.41-3.67 5.21-5.43 2.29-2.26 4.46-4.56 6.56-7 3.5-4.06 7.15-7.97 10.8-11.9 9.32-9.78 9.32-9.78 18.1-20.1 2.21-2.71 4.57-5.1 7.07-7.54 0.957-0.943 1.91-1.89 2.87-2.83 0.489-0.484 0.978-0.968 1.48-1.47 4.43-4.39 8.7-8.82 12.7-13.6 2.53-2.82 5.21-5.46 7.91-8.12 3.82-3.78 7.49-7.6 11-11.7 3.44-3.93 7.04-7.71 10.6-11.5 3.81-4.07 7.59-8.16 11.3-12.3 3.4-3.72 6.86-7.33 10.5-10.9 1.76-1.8 3.4-3.67 5.04-5.57 2.42-2.81 4.92-5.46 7.56-8.06 3.88-3.83 7.46-7.86 11-12 3.87-4.49 7.81-8.81 12-13 1.48-1.7 2.93-3.42 4.38-5.16 2.92-3.32 6.13-6.35 9.27-9.46 6.07-6 6.07-6 11.8-12.3 3.02-3.54 6.26-6.8 9.56-10.1 5.37-5.31 10.4-10.8 15.1-16.7 2.14-2.63 4.45-4.94 6.88-7.31 1.29-1.27 2.59-2.54 3.88-3.81 0.616-0.605 1.23-1.21 1.87-1.83 1.92-2.01 3.75-4.05 5.57-6.14 3.49-4.01 7.09-7.91 10.7-11.8 1.32-1.4 2.64-2.8 3.96-4.21 0.993-1.06 0.993-1.06 2.01-2.13 3.08-3.28 6.15-6.56 9.22-9.85 0.58-0.621 1.16-1.24 1.76-1.88 2.64-2.82 5.26-5.66 7.86-8.52 5.37-5.93 10.9-11.6 16.6-17.3 3.51-3.48 6.83-7.06 10-10.8 2.15-2.45 4.47-4.7 6.8-6.98 1.79-1.82 3.46-3.71 5.12-5.65 2.59-3.01 5.3-5.84 8.12-8.62 2.66-2.63 5.21-5.27 7.62-8.12 4.15-4.85 8.73-9.28 13.3-13.7 3.79-3.74 7.36-7.58 10.8-11.6 3.6-4.12 7.4-8.05 11.2-12 3.72-3.94 7.33-7.95 10.9-12 2.8-3.18 5.7-6.25 8.6-9.33 3.85-4.09 7.65-8.22 11.4-12.4 3.28-3.66 6.68-7.14 10.2-10.6l2.78-2.69c1.42-1.36 2.83-2.73 4.27-4.07 1.41-1.33 2.81-2.69 4.2-4.05 0.823-0.785 1.65-1.57 2.49-2.38 2.24-3.07 2.27-4.73 1.78-8.45-1.72-2.92-1.72-2.92-4.19-5.75-0.923-1.14-1.84-2.28-2.76-3.42-0.494-0.612-0.988-1.22-1.5-1.85-2.81-3.57-5.42-7.28-8.05-11-4.5-6.27-9.1-12.4-13.8-18.5-3.29-4.27-6.47-8.62-9.66-13-4.76-6.49-9.59-12.9-14.5-19.3-6.72-8.7-13.3-17.5-19.7-26.4-4.56-6.25-9.24-12.4-13.9-18.6-4.63-6.06-9.24-12.1-13.7-18.3-6.92-9.59-13.9-19.1-21.2-28.5-3.87-4.98-7.58-10.1-11.2-15.2-6.38-8.89-13-17.6-19.7-26.2-5.43-7.02-10.8-14.1-16-21.3-2.07-2.85-4.18-5.67-6.3-8.48-3.31-4.39-6.57-8.81-9.81-13.2-8.85-12.1-17.9-24.1-27-36-6.26-8.18-12.4-16.4-18.4-24.8-3.84-5.36-7.82-10.6-11.9-15.8-3.23-4.18-6.34-8.45-9.46-12.7-4.62-6.3-9.3-12.6-14.1-18.8-5.3-6.89-10.5-13.9-15.5-20.9-6.41-8.94-12.9-17.8-19.6-26.5-9.61-12.5-19-25.1-28.2-37.9-5.3-7.36-10.8-14.5-16.4-21.7-9.53-12.4-18.7-25.1-28-37.7-6.14-8.37-12.3-16.7-18.7-24.9-3.73-4.85-7.27-9.81-10.8-14.8-4.46-6.42-9.2-12.5-14.2-18.5-5.57-6.75-10.7-13.8-15.8-20.9 0.66-1.32 1.32-2.64 2-4z" fill="#FCFDFF"/>
<path transform="translate(325 218)" d="m0 0c1.25-0.0158 2.51-0.0315 3.8-0.0477 1.4-0.00728 2.79-0.0143 4.19-0.0211 1.47-0.0142 2.93-0.0291 4.4-0.0447 4.82-0.0473 9.64-0.0729 14.5-0.0972 1.66-0.00941 3.32-0.0189 4.98-0.0285 6.91-0.0385 13.8-0.0717 20.7-0.0904 9.89-0.0268 19.8-0.0843 29.7-0.186 6.96-0.0689 13.9-0.103 20.9-0.112 4.15-6e-3 8.31-0.0269 12.5-0.0846 3.91-0.0535 7.82-0.0639 11.7-0.0419 1.43 7.15e-4 2.86-0.0138 4.3-0.0452 10.8-0.223 10.8-0.223 15.1 3.04 2.04 2.26 3.75 4.52 5.42 7.06 0.969 1.31 1.94 2.62 2.91 3.93 0.909 1.31 1.81 2.63 2.71 3.95 1.03 1.48 2.06 2.96 3.09 4.45 0.532 0.763 1.06 1.53 1.61 2.31 7.41 10.5 15.2 20.8 23.1 30.9 3.19 4.15 6.27 8.38 9.36 12.6 4.73 6.46 9.56 12.8 14.5 19.1 4.63 5.9 9.1 11.9 13.4 18 2.14 3.04 4.33 6.02 6.64 8.94 3.48 4.4 6.73 8.95 10 13.5 4.57 6.36 9.24 12.6 14 18.8 6.29 8.15 12.3 16.5 18.4 24.8 8.04 11 16.2 21.8 24.5 32.6 8.39 11 16.6 22.1 24.8 33.2 6.75 9.16 13.6 18.3 20.5 27.3 8.16 10.7 16.2 21.4 24.1 32.2 5.26 7.14 10.6 14.2 15.9 21.3 2.49 3.31 4.98 6.63 7.47 9.95 0.494 0.658 0.987 1.32 1.5 1.99 2.53 3.37 5.05 6.74 7.57 10.1 4.67 6.24 9.35 12.5 14.1 18.6 6.42 8.32 12.7 16.7 18.9 25.2 5.39 7.34 10.8 14.6 16.4 21.8 7.27 9.41 14.3 19 21.3 28.6 3.91 5.35 7.89 10.6 11.9 15.9 3.5 4.66 6.94 9.36 10.4 14.1 4.76 6.54 9.64 13 14.6 19.4 3.88 5.01 7.66 10.1 11.3 15.2 4.34 6.13 8.87 12.1 13.5 18 8.2 10.6 16.4 21.2 24.1 32.2 2.72 3.85 5.55 7.6 8.45 11.3 3.4 4.37 6.68 8.8 9.88 13.3 7.79 11 15.9 21.8 24.3 32.3 5.09 6.42 9.94 13 14.8 19.6 4.76 6.5 9.54 13 14.6 19.3 6.19 7.78 12 15.8 17.9 23.8 2.84 3.86 5.72 7.67 8.6 11.5 1.92 2.58 3.8 5.18 5.68 7.79 3.65 5.05 7.47 9.96 11.3 14.9 5.14 6.58 10.1 13.2 15 20 13.4 18.5 13.4 18.5 27.2 36.8 3.45 4.45 6.81 8.95 10.1 13.5 3.97 5.45 8.02 10.8 12.1 16.2 8.47 11 16.8 22.1 24.9 33.4 6.14 8.57 12.6 16.9 19.1 25.2 6.44 8.25 12.5 16.7 18.7 25.2 4.1 5.68 8.32 11.2 12.6 16.8 2.15 2.8 4.21 5.64 6.26 8.51 3.76 5.25 7.88 10.1 12.1 15 1.91 2.43 1.91 2.43 1.91 4.43-15.2 0.132-30.4 0.262-45.6 0.391-7.07 0.06-14.1 0.12-21.2 0.182-6.17 0.0535-12.3 0.106-18.5 0.158-3.26 0.0274-6.51 0.0553-9.77 0.0838-7.15 0.0626-14.3 0.116-21.4 0.159-3.47 0.0261-6.95 0.0672-10.4 0.109-2.23 0.0187-4.45 0.0371-6.68 0.0549-0.998 0.0159-2 0.0319-3.03 0.0483-15.1 0.0843-15.1 0.0843-20.7-3.86-0.536-0.686-1.07-1.37-1.62-2.08-0.642-0.804-1.28-1.61-1.95-2.44-3.2-4.38-6.37-8.76-9.48-13.2-2.44-3.46-4.98-6.83-7.57-10.2-0.415-0.536-0.829-1.07-1.26-1.62-2.04-2.63-4.09-5.26-6.14-7.88-5.37-6.92-10.5-14-15.6-21.1-5.06-7.04-10.3-14-15.5-20.9-2.5-3.32-4.99-6.64-7.48-9.97-0.997-1.33-1.99-2.66-2.99-3.99-2.03-2.7-4.05-5.41-6.08-8.12-4.61-6.16-9.23-12.3-13.9-18.4-8.76-11.4-17.3-22.9-25.8-34.4-3.71-5.04-7.45-10.1-11.2-15.1-4.32-5.75-8.61-11.5-12.9-17.3-0.585-0.795-1.17-1.59-1.77-2.41-2.96-4.02-5.91-8.05-8.86-12.1-6.37-8.7-12.9-17.3-19.5-25.8-3.9-4.99-7.64-10.1-11.3-15.2-7.09-10.1-14.6-19.8-22.1-29.5-3.43-4.45-6.81-8.94-10.2-13.4-1.71-2.28-3.42-4.57-5.13-6.84-6.11-8.13-12.2-16.3-18.2-24.5-3.39-4.6-6.82-9.17-10.3-13.7-3.28-4.22-6.42-8.51-9.5-12.9-4.39-6.22-9.02-12.2-13.7-18.2-5.16-6.59-10.2-13.3-15.2-20-3.45-4.61-6.92-9.19-10.5-13.7-4.54-5.87-8.87-11.9-13.2-17.9-3.49-4.85-7.1-9.56-10.9-14.2-3.44-4.3-6.6-8.8-9.81-13.3-5.31-7.32-10.7-14.6-16.2-21.8-4.9-6.32-9.6-12.8-14.3-19.3-6.55-9.13-13.2-18.2-20.1-27-7.92-10.2-15.8-20.5-23.4-31-7.72-10.7-15.6-21.3-23.6-31.7-7.23-9.35-14.2-18.9-21.2-28.4-5.81-7.91-11.7-15.7-17.7-23.5-3.93-5.15-7.81-10.3-11.6-15.6-2.49-3.43-5.04-6.81-7.59-10.2-4.45-5.91-8.86-11.9-13.2-17.8-0.582-0.79-1.16-1.58-1.76-2.4-3.01-4.09-6.01-8.17-9.01-12.3-5.08-6.91-10.2-13.8-15.4-20.6-3.93-5.07-7.7-10.2-11.4-15.4-4.93-6.87-9.98-13.6-15.2-20.3-7.86-10.1-15.6-20.3-23.2-30.7-7.24-9.86-14.6-19.7-22-29.3-4.75-6.15-9.35-12.4-13.9-18.7-3.4-4.63-6.84-9.23-10.4-13.8-4.02-5.18-7.91-10.4-11.8-15.7-4.29-5.88-8.66-11.7-13-17.5-1.43-1.91-2.86-3.81-4.29-5.72-1.02-1.36-2.03-2.71-3.05-4.07-2.58-3.44-5.16-6.89-7.74-10.3-0.505-0.674-1.01-1.35-1.53-2.04-1-1.34-2-2.68-3-4.02-2.41-3.22-4.84-6.41-7.33-9.57-0.463-0.591-0.927-1.18-1.4-1.79-1.26-1.6-2.52-3.19-3.79-4.78-2.7-3.87-2.7-3.87-2.86-6.67 2.7-2.7 4.1-2.27 7.88-2.3z" fill="#000100"/>
</svg>
