<svg width="64" height="64" viewBox="0 0 64 64" fill="none" xmlns="http://www.w3.org/2000/svg">
<path d="M50 57H49C48.7348 57 48.4804 57.1054 48.2929 57.2929C48.1054 57.4804 48 57.7348 48 58C48 58.2652 48.1054 58.5196 48.2929 58.7071C48.4804 58.8946 48.7348 59 49 59H50C50.2652 59 50.5196 58.8946 50.7071 58.7071C50.8946 58.5196 51 58.2652 51 58C51 57.7348 50.8946 57.4804 50.7071 57.2929C50.5196 57.1054 50.2652 57 50 57Z" fill="#ffffff" id="id_101"></path>
<path d="M57 2H7C6.73478 2 6.48043 2.10536 6.29289 2.29289C6.10536 2.48043 6 2.73478 6 3V47C6 47.2652 6.10536 47.5196 6.29289 47.7071C6.48043 47.8946 6.73478 48 7 48H33.09L35.5 51.61C35.828 52.1013 36.0021 52.6793 36 53.27V54H35C34.7348 54 34.4804 54.1054 34.2929 54.2929C34.1054 54.4804 34 54.7348 34 55V61C34 61.2652 34.1054 61.5196 34.2929 61.7071C34.4804 61.8946 34.7348 62 35 62H53C53.2652 62 53.5196 61.8946 53.7071 61.7071C53.8946 61.5196 54 61.2652 54 61V55C54 54.7348 53.8946 54.4804 53.7071 54.2929C53.5196 54.1054 53.2652 54 53 54H52.02C52.0465 53.4823 52.2123 52.9813 52.5 52.55L53.17 51.56C53.6933 50.7625 53.981 49.8336 54 48.88V48H57C57.2652 48 57.5196 47.8946 57.7071 47.7071C57.8946 47.5196 58 47.2652 58 47V3C58 2.73478 57.8946 2.48043 57.7071 2.29289C57.5196 2.10536 57.2652 2 57 2V2ZM52 60H36V56H52V60ZM52 46.95C52 46.97 51.99 46.98 51.99 47C51.99 47.02 52 47.03 52 47.05V48.85C51.9875 49.4198 51.8142 49.9745 51.5 50.45L50.84 51.44C50.3312 52.1992 50.047 53.0865 50.02 54H38V53.27C38.0017 52.2837 37.7092 51.3193 37.16 50.5L30.29 40.18C30.5002 39.9909 30.7479 39.8481 31.0169 39.7611C31.2859 39.6741 31.5703 39.6447 31.8514 39.6749C32.1326 39.7051 32.4042 39.7941 32.6486 39.9363C32.893 40.0785 33.1048 40.2705 33.27 40.5L36.19 44.58C36.3136 44.7507 36.488 44.878 36.6883 44.9438C36.8885 45.0095 37.1045 45.0102 37.3052 44.9459C37.5059 44.8816 37.6812 44.7555 37.806 44.5856C37.9307 44.4157 37.9987 44.2108 38 44V29C38 28.7348 38.1054 28.4804 38.2929 28.2929C38.4804 28.1054 38.7348 28 39 28C39.2652 28 39.5196 28.1054 39.7071 28.2929C39.8946 28.4804 40 28.7348 40 29V40C40 40.2652 40.1054 40.5196 40.2929 40.7071C40.4804 40.8946 40.7348 41 41 41C41.2652 41 41.5196 40.8946 41.7071 40.7071C41.8946 40.5196 42 40.2652 42 40V38C42 37.7348 42.1054 37.4804 42.2929 37.2929C42.4804 37.1054 42.7348 37 43 37C43.2652 37 43.5196 37.1054 43.7071 37.2929C43.8946 37.4804 44 37.7348 44 38V40C44 40.2652 44.1054 40.5196 44.2929 40.7071C44.4804 40.8946 44.7348 41 45 41C45.2652 41 45.5196 40.8946 45.7071 40.7071C45.8946 40.5196 46 40.2652 46 40V38C46 37.7348 46.1054 37.4804 46.2929 37.2929C46.4804 37.1054 46.7348 37 47 37C47.2652 37 47.5196 37.1054 47.7071 37.2929C47.8946 37.4804 48 37.7348 48 38V40C48 40.2652 48.1054 40.5196 48.2929 40.7071C48.4804 40.8946 48.7348 41 49 41C49.2652 41 49.5196 40.8946 49.7071 40.7071C49.8946 40.5196 50 40.2652 50 40V38C50 37.7348 50.1054 37.4804 50.2929 37.2929C50.4804 37.1054 50.7348 37 51 37C51.2652 37 51.5196 37.1054 51.7071 37.2929C51.8946 37.4804 52 37.7348 52 38V46.95ZM43 24H41V22H43C43 22.2652 43.1054 22.5196 43.2929 22.7071C43.4804 22.8946 43.7348 23 44 23C44.2652 23 44.5196 22.8946 44.7071 22.7071C44.8946 22.5196 45 22.2652 45 22V21C45 20.7348 44.8946 20.4804 44.7071 20.2929C44.5196 20.1054 44.2652 20 44 20H41C40.4701 20.0016 39.9623 20.2128 39.5875 20.5875C39.2128 20.9623 39.0016 21.4701 39 22V24C39.0016 24.5299 39.2128 25.0377 39.5875 25.4125C39.9623 25.7872 40.4701 25.9984 41 26H43V28H41.82C41.58 27.3386 41.1152 26.7826 40.5069 26.4292C39.8985 26.0758 39.1853 25.9475 38.4919 26.0666C37.7985 26.1857 37.169 26.5448 36.7135 27.081C36.258 27.6172 36.0055 28.2965 36 29V32H15C14.7348 32 14.4804 31.8946 14.2929 31.7071C14.1054 31.5196 14 31.2652 14 31V19C14 18.7348 14.1054 18.4804 14.2929 18.2929C14.4804 18.1054 14.7348 18 15 18H49C49.2652 18 49.5196 18.1054 49.7071 18.2929C49.8946 18.4804 50 18.7348 50 19V31C50 31.2652 49.8946 31.5196 49.7071 31.7071C49.5196 31.8946 49.2652 32 49 32H42V30H43C43.5299 29.9984 44.0377 29.7872 44.4125 29.4125C44.7872 29.0377 44.9984 28.5299 45 28V26C44.9984 25.4701 44.7872 24.9623 44.4125 24.5875C44.0377 24.2128 43.5299 24.0016 43 24V24ZM56 46H54V38C53.9976 37.2051 53.6808 36.4434 53.1187 35.8813C52.5566 35.3192 51.7949 35.0024 51 35C50.2595 35.0019 49.5463 35.2801 49 35.78C48.4547 35.2784 47.7409 35 47 35C46.2591 35 45.5453 35.2784 45 35.78C44.4537 35.2801 43.7405 35.0019 43 35C42.6589 35.0027 42.3207 35.0636 42 35.18V34H49C49.7949 33.9976 50.5566 33.6808 51.1187 33.1187C51.6808 32.5566 51.9976 31.7949 52 31V19C51.9976 18.2051 51.6808 17.4434 51.1187 16.8813C50.5566 16.3192 49.7949 16.0024 49 16H15C14.2051 16.0024 13.4434 16.3192 12.8813 16.8813C12.3192 17.4434 12.0024 18.2051 12 19V31C12.0024 31.7949 12.3192 32.5566 12.8813 33.1187C13.4434 33.6808 14.2051 33.9976 15 34H36V40.88L34.9 39.33C34.559 38.8549 34.1182 38.4602 33.6085 38.1734C33.0988 37.8867 32.5325 37.7149 31.9494 37.6701C31.3663 37.6254 30.7805 37.7087 30.233 37.9142C29.6855 38.1197 29.1896 38.4426 28.78 38.86L28.29 39.36C28.1318 39.5245 28.0345 39.7382 28.0145 39.9656C27.9945 40.193 28.0529 40.4204 28.18 40.61L31.76 46H8V12H56V46ZM56 10H8V4H56V10Z" fill="#ffffff" id="id_102"></path>
<path d="M12 6H11C10.7348 6 10.4804 6.10536 10.2929 6.29289C10.1054 6.48043 10 6.73478 10 7C10 7.26522 10.1054 7.51957 10.2929 7.70711C10.4804 7.89464 10.7348 8 11 8H12C12.2652 8 12.5196 7.89464 12.7071 7.70711C12.8946 7.51957 13 7.26522 13 7C13 6.73478 12.8946 6.48043 12.7071 6.29289C12.5196 6.10536 12.2652 6 12 6Z" fill="#ffffff" id="id_103"></path>
<path d="M17 6H16C15.7348 6 15.4804 6.10536 15.2929 6.29289C15.1054 6.48043 15 6.73478 15 7C15 7.26522 15.1054 7.51957 15.2929 7.70711C15.4804 7.89464 15.7348 8 16 8H17C17.2652 8 17.5196 7.89464 17.7071 7.70711C17.8946 7.51957 18 7.26522 18 7C18 6.73478 17.8946 6.48043 17.7071 6.29289C17.5196 6.10536 17.2652 6 17 6Z" fill="#ffffff" id="id_104"></path>
<path d="M22 6H21C20.7348 6 20.4804 6.10536 20.2929 6.29289C20.1054 6.48043 20 6.73478 20 7C20 7.26522 20.1054 7.51957 20.2929 7.70711C20.4804 7.89464 20.7348 8 21 8H22C22.2652 8 22.5196 7.89464 22.7071 7.70711C22.8946 7.51957 23 7.26522 23 7C23 6.73478 22.8946 6.48043 22.7071 6.29289C22.5196 6.10536 22.2652 6 22 6Z" fill="#ffffff" id="id_105"></path>
<path d="M23.959 20.651C23.8879 20.4601 23.7602 20.2954 23.5929 20.179C23.4256 20.0627 23.2268 20.0002 23.023 20V20C22.82 20 22.6218 20.0619 22.4548 20.1773C22.2878 20.2927 22.1599 20.4561 22.088 20.646L19.066 28.646C19.0194 28.7689 18.9975 28.8998 19.0016 29.0312C19.0056 29.1626 19.0355 29.2918 19.0896 29.4117C19.1436 29.5315 19.2208 29.6394 19.3166 29.7294C19.4124 29.8194 19.525 29.8896 19.648 29.936C19.7607 29.9778 19.8798 29.9994 20 30C20.2032 30.0002 20.4016 29.9384 20.5688 29.823C20.736 29.7076 20.8641 29.544 20.936 29.354L21.447 28H24.56L25.06 29.349C25.106 29.4721 25.1757 29.585 25.2653 29.6811C25.3549 29.7773 25.4625 29.8548 25.5821 29.9094C25.7016 29.964 25.8308 29.9944 25.9621 29.9991C26.0934 30.0037 26.2244 29.9825 26.3475 29.9365C26.4706 29.8905 26.5835 29.8208 26.6796 29.7312C26.7758 29.6416 26.8534 29.534 26.9079 29.4144C26.9625 29.2949 26.9929 29.1657 26.9976 29.0344C27.0022 28.9031 26.981 28.7721 26.935 28.649L23.959 20.651ZM22.2 26L23.013 23.848L23.813 26H22.2Z" fill="#ffffff" id="id_106"></path>
<path d="M31 20H30C29.7348 20 29.4804 20.1054 29.2929 20.2929C29.1054 20.4804 29 20.7348 29 21V29C29 29.2652 29.1054 29.5196 29.2929 29.7071C29.4804 29.8946 29.7348 30 30 30H31C32.3261 30 33.5979 29.4732 34.5355 28.5355C35.4732 27.5979 36 26.3261 36 25C36 23.6739 35.4732 22.4021 34.5355 21.4645C33.5979 20.5268 32.3261 20 31 20ZM31 28V22C31.7956 22 32.5587 22.3161 33.1213 22.8787C33.6839 23.4413 34 24.2044 34 25C34 25.7956 33.6839 26.5587 33.1213 27.1213C32.5587 27.6839 31.7956 28 31 28V28Z" fill="#ffffff" id="id_107"></path>
<path d="M13 38H28C28.2652 38 28.5196 37.8946 28.7071 37.7071C28.8946 37.5196 29 37.2652 29 37C29 36.7348 28.8946 36.4804 28.7071 36.2929C28.5196 36.1054 28.2652 36 28 36H13C12.7348 36 12.4804 36.1054 12.2929 36.2929C12.1054 36.4804 12 36.7348 12 37C12 37.2652 12.1054 37.5196 12.2929 37.7071C12.4804 37.8946 12.7348 38 13 38V38Z" fill="#ffffff" id="id_108"></path>
<path d="M13 42H24C24.2652 42 24.5196 41.8946 24.7071 41.7071C24.8946 41.5196 25 41.2652 25 41C25 40.7348 24.8946 40.4804 24.7071 40.2929C24.5196 40.1054 24.2652 40 24 40H13C12.7348 40 12.4804 40.1054 12.2929 40.2929C12.1054 40.4804 12 40.7348 12 41C12 41.2652 12.1054 41.5196 12.2929 41.7071C12.4804 41.8946 12.7348 42 13 42V42Z" fill="#ffffff" id="id_109"></path>
</svg>